<?xml version="1.0" encoding="utf-8"?>
<!-- Generator: Adobe Illustrator 16.0.0, SVG Export Plug-In . SVG Version: 6.00 Build 0)  -->
<!DOCTYPE svg PUBLIC "-//W3C//DTD SVG 1.1//EN" "http://www.w3.org/Graphics/SVG/1.1/DTD/svg11.dtd">
<svg version="1.1" id="Ebene_1" xmlns="http://www.w3.org/2000/svg" xmlns:xlink="http://www.w3.org/1999/xlink" x="0px" y="0px"
	 width="96px" height="96px" viewBox="0 0 96 96" enable-background="new 0 0 96 96" xml:space="preserve">
<g id="_x39__av_replay">
	<path fill="#CCCCCC" d="M20.864,68.465c2.467,3.664,5.578,6.734,9.247,9.131c3.546,2.303,7.456,3.883,11.626,4.695
		c0.795,0.154,1.585,0.277,2.386,0.373c3.388,0.404,6.799,0.281,10.142-0.369c4.302-0.838,8.334-2.516,11.992-4.979
		c3.656-2.465,6.725-5.578,9.122-9.252c2.311-3.549,3.895-7.457,4.707-11.617c0.148-0.75,0.27-1.51,0.359-2.268l0.021-0.154
		c0.402-3.383,0.275-6.787-0.38-10.106c-0.837-4.3-2.512-8.335-4.979-12.006c-2.467-3.657-5.574-6.725-9.249-9.115l-5.091,7.68
		c2.613,1.708,4.833,3.889,6.599,6.507c1.76,2.622,2.953,5.501,3.558,8.563c0.467,2.388,0.557,4.824,0.271,7.226
		c-0.075,0.588-0.16,1.16-0.271,1.713c-0.587,3.002-1.725,5.799-3.36,8.318c-1.701,2.613-3.896,4.828-6.52,6.6
		c-2.616,1.764-5.494,2.955-8.555,3.561c-2.37,0.465-4.812,0.553-7.242,0.264c-0.574-0.066-1.147-0.16-1.737-0.273
		c-2.97-0.578-5.752-1.713-8.273-3.359c-2.619-1.703-4.837-3.898-6.598-6.51c-1.765-2.615-2.961-5.494-3.561-8.555
		c-0.56-2.875-0.528-5.906,0.007-9c0.568-2.915,1.731-5.767,3.358-8.258c1.203-1.849,2.878-3.631,4.567-5.073l6.828,10.926
		l13.052-29.002L21.08,13.103l7.012,11.221c-2.895,2.242-5.509,4.939-7.495,7.993c-2.317,3.536-3.901,7.447-4.721,11.649
		c-0.727,4.081-0.803,8.38,0.007,12.501C16.725,60.773,18.402,64.814,20.864,68.465z"/>
</g>
</svg>
